<svg xmlns:dc="http://purl.org/dc/elements/1.1/" xmlns:cc="http://creativecommons.org/ns#" xmlns:rdf="http://www.w3.org/1999/02/22-rdf-syntax-ns#" xmlns:svg="http://www.w3.org/2000/svg" xmlns="http://www.w3.org/2000/svg" xmlns:sodipodi="http://sodipodi.sourceforge.net/DTD/sodipodi-0.dtd" xmlns:inkscape="http://www.inkscape.org/namespaces/inkscape" enable-background="new 0 0 30 30" height="30" version="1.1" viewBox="0 0 30 30" width="30" xml:space="preserve" inkscape:version="0.48.5 r10040"><style>.style0{fill:	#434440;}.style1{fill:	#2372ba;}</style><metadata><rdf:RDF><cc:Work rdf:about=""><dc:format>image/svg+xml</dc:format><dc:type rdf:resource="http://purl.org/dc/dcmitype/StillImage"/><dc:title/></cc:Work></rdf:RDF></metadata><defs/><g transform="translate(0,0.14999962)"><path inkscape:connector-curvature="0" d="M 28.7 7.6 23.2 1.3 22.2 0 H 9.3 C 7.5 0 6.1 1.4 6.1 3.1 V 7.1 H 8.1 L 8.1 3.9 C 8.1 2.9 8.9 2.1 9.8 2.1 l 11 -0 V 7.3 c 0 1.9 1.6 3.5 3.5 3.5 h 3.8 l -0.2 15.1 c -0 1 -0.8 1.8 -1.8 1.8 L 9.7 27.7 c -0.9 0 -1.6 -0.9 -1.6 -1.9 V 24.5 H 6.1 v 1.9 c 0 1.9 1.3 3.5 2.9 3.5 l 17.8 -0 c 1.7 0 3.1 -1.4 3.1 -3.1 V 9 L 28.7 7.6" class="style0"/><path inkscape:connector-curvature="0" d="M 20.2 25.5 H 0 V 6.1 H 20.2 V 25.5 M 1.9 23.5 H 18.3 V 8.1 H 1.9" class="style1"/><polyline points="17.1,11.9 14.1,20.9 11.6,20.9 10,15.7 8.2,20.9 5.7,20.9 3,11.9 5.5,11.9 7.1,17.7 9.1,11.9 11,11.9 12.8,17.7 14.5,11.9 17.1,11.9" class="style1"/></g></svg>